<svg width="25" height="28" viewBox="0 0 25 28" fill="none" xmlns="http://www.w3.org/2000/svg">
<path d="M12.5 1.75C13.684 1.75 14.8195 2.21094 15.6567 3.03141C16.4939 3.85188 16.9643 4.96468 16.9643 6.125V7H8.03571V6.125C8.03571 4.96468 8.50606 3.85188 9.34327 3.03141C10.1805 2.21094 11.316 1.75 12.5 1.75ZM18.75 7V6.125C18.75 4.50055 18.0915 2.94263 16.9194 1.79397C15.7473 0.645311 14.1576 0 12.5 0C10.8424 0 9.25269 0.645311 8.08058 1.79397C6.90848 2.94263 6.25 4.50055 6.25 6.125V7H0V24.5C0 25.4283 0.376274 26.3185 1.04605 26.9749C1.71582 27.6313 2.62423 28 3.57143 28H21.4286C22.3758 28 23.2842 27.6313 23.954 26.9749C24.6237 26.3185 25 25.4283 25 24.5V7H18.75ZM1.78571 8.75H23.2143V24.5C23.2143 24.9641 23.0261 25.4092 22.6913 25.7374C22.3564 26.0656 21.9022 26.25 21.4286 26.25H3.57143C3.09783 26.25 2.64362 26.0656 2.30874 25.7374C1.97385 25.4092 1.78571 24.9641 1.78571 24.5V8.75Z" fill="black"/>
</svg>
